OpenSim_Sub08_CSStiffKnee_LCS.mot
version=1
nRows=56
nColumns=11
inDegrees=no
endheader
time	Bot_Shank	2nd_Bot_Shank	2nd_Top_Shank	Top_Shank	Bot_Thigh	Med_Thigh	Top_Thigh	BNOx	BNOy	BNOZ
0	8556.46535893	8943.70975690	9431.81873646	9152	10192.19063266	10892.02253412	11432.80816887	206.91071585	-75.20295330	124.71702160
0.01000000	8555.98241748	8943.55290677	9431.79021356	9152	10192.21167794	10891.53275207	11432.31802586	206.90159521	-75.20224843	124.67655333
0.02000000	8555.24953672	8943.39101831	9431.59804442	9152	10192.20552390	10890.90798831	11431.72198697	206.89376280	-75.19983278	124.63440553
0.03000000	8554.33327518	8943.23790354	9431.25223930	9152	10192.17190856	10890.23395136	11431.09705750	206.88744561	-75.19651282	124.59158728
0.04000000	8553.30019141	8943.10737447	9430.76280848	9152	10192.11056995	10889.59634973	11430.52024277	206.88287064	-75.19309501	124.54910769
0.05000000	8552.21684398	8943.01324309	9430.13976221	9152	10192.02124606	10889.08089195	11430.06854807	206.88026487	-75.19038583	124.50797584
0.06000000	8551.14726811	8942.96752444	9429.39673780	9152	10191.90438839	10888.76399530	11429.81008573	206.87977213	-75.18912833	124.46912692
0.07000000	8550.13685026	8942.96895262	9428.57417875	9152	10191.76572135	10888.65340916	11429.74724331	206.88092152	-75.18959678	124.43294989
0.08000000	8549.22261846	8943.01030925	9427.72454314	9152	10191.61333268	10888.72610573	11429.85295034	206.88296666	-75.19185539	124.39958889
0.09000000	8548.44156127	8943.08434782	9426.90034573	9152	10191.45532130	10888.95891203	11430.09999741	206.88515983	-75.19596733	124.36918689
0.10000000	8547.83066729	8943.18382187	9426.15410130	9152	10191.29978611	10889.32865509	11430.46117509	206.88675335	-75.20199581	124.34188690
0.11000000	8547.42692510	8943.30148490	9425.53832461	9152	10191.15482602	10889.81216193	11430.90927396	206.88699953	-75.21000401	124.31783187
0.12000000	8547.26732328	8943.43009043	9425.10553041	9152	10191.02853993	10890.38625957	11431.41708461	206.88515065	-75.22005515	124.29716481
0.13000000	8547.38885043	8943.56239198	9424.90823348	9152	10190.92902674	10891.02777504	11431.95739761	206.88045903	-75.23221240	124.28002869
0.14000000	8547.82849512	8943.69114306	9424.99894857	9152	10190.86438536	10891.71353536	11432.50300354	206.87217697	-75.24653896	124.26656650
0.15000000	8548.62324594	8943.80909719	9425.43019045	9152	10190.84271469	10892.42036756	11433.02669299	206.85955678	-75.26309803	124.25692122
0.16000000	8549.81009148	8943.90900788	9426.25447388	9152	10190.87211364	10893.12509867	11433.50125652	206.84185075	-75.28195280	124.25123583
0.17000000	8551.42602031	8943.98362865	9427.52431364	9152	10190.96068111	10893.80455570	11433.89948473	206.81831119	-75.30316647	124.24965332
0.18000000	8553.49292865	8944.02663538	9429.27373602	9152	10191.11450913	10894.43838259	11434.19799599	206.78832759	-75.32676156	124.25230764
0.19000000	8555.87690473	8944.04122600	9431.34589966	9152	10191.31897150	10895.03530404	11434.41292529	206.75270582	-75.35234081	124.25923964
0.20000000	8558.35211848	8944.03621598	9433.47136152	9152	10191.54721936	10895.62120081	11434.58372034	206.71308727	-75.37925929	124.27043518
0.21000000	8560.69155177	8944.02049336	9435.37922320	9152	10191.77224590	10896.22217541	11434.75013014	206.67112419	-75.40686885	124.28587945
0.22000000	8562.66818648	8944.00294622	9436.79858628	9152	10191.96704430	10896.86433035	11434.95190372	206.62846877	-75.43452138	124.30555761
0.23000000	8564.08584354	8943.99153326	9437.49821717	9152	10192.10765352	10897.57353460	11435.22372384	206.58662233	-75.46167488	124.32951232
0.24000000	8564.97626358	8943.98734470	9437.54003005	9152	10192.19262285	10898.37393118	11435.56283057	206.54597083	-75.48857197	124.35821113
0.25000000	8565.47334158	8943.98839228	9437.11732881	9152	10192.23059079	10899.28888951	11435.94968207	206.50640034	-75.51580688	124.39231199
0.26000000	8565.71145432	8943.99267323	9436.42403709	9152	10192.23024340	10900.34177535	11436.36465732	206.46779458	-75.54397552	124.43247378
0.27000000	8565.82497863	8943.99818476	9435.65407853	9152	10192.20026677	10901.55595451	11436.78813530	206.43003724	-75.57367377	124.47935536
0.28000000	8565.94829131	8944.00292410	9435.00137678	9152	10192.14934697	10902.95479273	11437.20049501	206.39301204	-75.60549755	124.53361559
0.29000000	8566.21576917	8944.00488847	9434.65985548	9152	10192.08617007	10904.56165582	11437.58211544	206.35660270	-75.64004275	124.59591334
0.30000000	8566.76178902	8944.00207509	9434.82343828	9152	10192.01942216	10906.39990953	11437.91337556	206.32069291	-75.67790528	124.66690747
0.31000000	8567.70876938	8943.99279675	9435.66637161	9152	10191.95746869	10908.48710197	11438.17658428	206.28518882	-75.71958780	124.74709666
0.32000000	8569.05567591	8943.97862412	9437.15976197	9152	10191.90536527	10910.78072168	11438.37397409	206.25022818	-75.76463058	124.83532599
0.33000000	8570.72864369	8943.96304981	9439.15487422	9152	10191.86621488	10913.20282532	11438.51953133	206.21608537	-75.81200607	124.92946494
0.34000000	8572.65286650	8943.94959127	9441.50142426	9152	10191.84309526	10915.67501158	11438.62739427	206.18303651	-75.86067942	125.02737041
0.35000000	8574.75353811	8943.94176599	9444.04912801	9152	10191.83908412	10918.11887916	11438.71170118	206.15135775	-75.90961575	125.12689929
0.36000000	8576.95585229	8943.94309140	9446.64770137	9152	10191.85725922	10920.45602676	11438.78659032	206.12132524	-75.95778021	125.22590849
0.37000000	8579.18500282	8943.95708498	9449.14686026	9152	10191.90069827	10922.60805307	11438.86619995	206.09321510	-76.00413791	125.32225489
0.38000000	8581.36618346	8943.98726418	9451.39632059	9152	10191.97247902	10924.49655678	11438.96466835	206.06730349	-76.04765400	125.41379539
0.39000000	8583.42853603	8944.03673953	9453.25710368	9152	10192.07500685	10926.04935755	11439.09469413	206.04379663	-76.08739226	125.49856258
0.40000000	8585.34196033	8944.10442039	9454.70694351	9152	10192.20374597	10927.25849756	11439.25411356	206.02217907	-76.12343490	125.57640283
0.41000000	8587.10040117	8944.18673769	9455.79242830	9152	10192.35006571	10928.15390690	11439.43199493	206.00150960	-76.15646498	125.64823255
0.42000000	8588.69811418	8944.28009032	9456.56103618	9152	10192.50528246	10928.76600534	11439.61729320	205.98084149	-76.18717331	125.71498197
0.43000000	8590.12935495	8944.38087719	9457.06024529	9152	10192.66071262	10929.12521264	11439.79896333	205.95922804	-76.21625069	125.77758135
0.44000000	8591.38837911	8944.48549717	9457.33753377	9152	10192.80767258	10929.26194858	11439.96596027	205.93572251	-76.24438793	125.83696091
0.45000000	8592.46944225	8944.59034917	9457.44037975	9152	10192.93747873	10929.20663293	11440.10723898	205.90937821	-76.27227586	125.89405089
0.46000000	8593.36679998	8944.69183208	9457.41626138	9152	10193.04144747	10928.98968546	11440.21175443	205.87924840	-76.30060526	125.94978155
0.47000000	8594.07470792	8944.78634478	9457.31265678	9152	10193.11089519	10928.64152594	11440.26846158	205.84438637	-76.33006696	126.00508310
0.48000000	8594.58742167	8944.87028618	9457.17704410	9152	10193.13713828	10928.19257414	11440.26631538	205.80384540	-76.36135177	126.06088581
0.49000000	8594.89919683	8944.94005516	9457.05690147	9152	10193.11149315	10927.67324984	11440.19427079	205.75667878	-76.39515050	126.11811989
0.50000000	8595.00428902	8944.99205063	9456.99970703	9152	10193.02527617	10927.11397280	11440.04128278	205.70193979	-76.43215395	126.17771560
0.51000000	8594.90242409	8945.02338726	9457.04121352	9152	10192.87310095	10926.54608591	11439.80196611	205.63909467	-76.47285087	126.24023180
0.52000000	8594.63375636	8945.03646999	9457.13051568	9152	10192.67394934	10926.00775448	11439.51276518	205.57066163	-76.51623653	126.30348269
0.53000000	8594.25656035	8945.03607482	9457.17786788	9152	10192.45772518	10925.54020166	11439.22887249	205.50052679	-76.56063687	126.36405230
0.54000000	8593.82919602	8945.02698894	9457.09334128	9152	10192.25438379	10925.18466500	11439.00556903	205.43258274	-76.60437463	126.41851885
0.55000000	8593.41002336	8945.01399954	9456.78700702	9152	10192.09388051	10924.98238208	11438.89813573	205.37072205	-76.64577257	126.46346057
